<svg xmlns="http://www.w3.org/2000/svg" viewBox="0 0 260.3 260.3" enable-background="new 0 0 260.3 260.3"><path d="m258.7 57.5c-1.4-1.8-3.6-2.9-5.9-2.9h-190.8l-8.3-32.1c-.9-3.3-3.8-5.6-7.3-5.6h-38.9c-4.1 0-7.5 3.4-7.5 7.5s3.4 7.5 7.5 7.5h33.1l8.3 32.1c0 0 0 0 0 0l29.4 113c.9 3.3 3.8 5.6 7.3 5.6h137.8c3.4 0 6.4-2.3 7.3-5.6l29.4-113c.5-2.3 0-4.7-1.4-6.5m-140.8 110h-26.5l-5.9-22.7h32.4v22.7m0-37.6h-36.3l-5.9-22.7h42.2c0 0 0 22.7 0 22.7m0-37.7h-46.1l-5.9-22.7h52v22.7m58.2 75.3h-43.2v-22.7h43.2v22.7m0-37.6h-43.2v-22.7h43.2v22.7m0-37.7h-43.2v-22.7h43.2v22.7m41.5 75.3h-26.5v-22.7h32.4l-5.9 22.7m9.8-37.6h-36.3v-22.7h42.2l-5.9 22.7m9.8-37.7h-46.1v-22.7h52l-5.9 22.7" fill="#ffd54f"/><g fill="#9d9d9d"><path d="m105.5 188.6c-15.1 0-27.4 12.3-27.4 27.4 0 15.1 12.3 27.4 27.4 27.4 15.1 0 27.4-12.3 27.4-27.4 0-15.1-12.3-27.4-27.4-27.4m0 39.8c-6.8 0-12.4-5.6-12.4-12.4 0-6.8 5.6-12.4 12.4-12.4 6.8 0 12.4 5.6 12.4 12.4 0 6.9-5.6 12.4-12.4 12.4"/><path d="m203.5 188.6c-15.1 0-27.4 12.3-27.4 27.4 0 15.1 12.3 27.4 27.4 27.4 15.1 0 27.4-12.3 27.4-27.4 0-15.1-12.3-27.4-27.4-27.4m0 39.8c-6.8 0-12.4-5.6-12.4-12.4 0-6.8 5.6-12.4 12.4-12.4 6.8 0 12.4 5.6 12.4 12.4 0 6.9-5.6 12.4-12.4 12.4"/></g></svg>