<svg xmlns="http://www.w3.org/2000/svg" viewBox="0 0 100 100" enable-background="new 0 0 100 100"><path d="m23.7 93.5c0 0 1.5 6.8 9.2 6.8h34.7c7.7 0 9.2-6.8 9.2-6.8l6.8-66.5h-66.7l6.8 66.5m39.9-56.6c0-1.8 1.5-3.3 3.3-3.3 1.8 0 3.3 1.5 3.3 3.3l-3.3 50c0 1.8-1.5 3.3-3.3 3.3-1.8 0-3.3-1.5-3.3-3.3l3.3-50m-16.7 0c0-1.8 1.5-3.3 3.3-3.3 1.8 0 3.3 1.5 3.3 3.3v50c0 1.8-1.5 3.3-3.3 3.3-1.8 0-3.3-1.5-3.3-3.3 0 0 0-50 0-50m-13.3-3.3c1.8 0 3.3 1.5 3.3 3.3l3.3 50c0 1.8-1.5 3.3-3.3 3.3-1.8 0-3.3-1.5-3.3-3.3l-3.3-50c-.1-1.8 1.4-3.3 3.3-3.3m48-20h-14.7v-6.7c0-5.1-1.6-6.7-6.7-6.7h-20c-4.6 0-6.7 2.2-6.7 6.7v6.7h-14.6c-2.9 0-5.3 2.2-5.3 5 0 2.8 2.4 5 5.3 5h62.7c2.9 0 5.3-2.2 5.3-5 0-2.8-2.4-5-5.3-5m-21.4 0h-20v-6.7h20v6.7"/></svg>