<?xml version="1.0" encoding="UTF-8"?><!DOCTYPE svg PUBLIC "-//W3C//DTD SVG 1.1//EN" "http://www.w3.org/Graphics/SVG/1.1/DTD/svg11.dtd">
<svg xmlns="http://www.w3.org/2000/svg">
    <symbol id="icon_cart" viewBox="0 0 260.3 260.3">
        <path d="m258.7 57.5c-1.4-1.8-3.6-2.9-5.9-2.9h-190.8l-8.3-32.1c-.9-3.3-3.8-5.6-7.3-5.6h-38.9c-4.1 0-7.5 3.4-7.5 7.5s3.4 7.5 7.5 7.5h33.1l8.3 32.1c0 0 0 0 0 0l29.4 113c.9 3.3 3.8 5.6 7.3 5.6h137.8c3.4 0 6.4-2.3 7.3-5.6l29.4-113c.5-2.3 0-4.7-1.4-6.5m-140.8 110h-26.5l-5.9-22.7h32.4v22.7m0-37.6h-36.3l-5.9-22.7h42.2c0 0 0 22.7 0 22.7m0-37.7h-46.1l-5.9-22.7h52v22.7m58.2 75.3h-43.2v-22.7h43.2v22.7m0-37.6h-43.2v-22.7h43.2v22.7m0-37.7h-43.2v-22.7h43.2v22.7m41.5 75.3h-26.5v-22.7h32.4l-5.9 22.7m9.8-37.6h-36.3v-22.7h42.2l-5.9 22.7m9.8-37.7h-46.1v-22.7h52l-5.9 22.7" fill="#ffd54f"/>
        <g fill="#9d9d9d">
            <path d="m105.5 188.6c-15.1 0-27.4 12.3-27.4 27.4 0 15.1 12.3 27.4 27.4 27.4 15.1 0 27.4-12.3 27.4-27.4 0-15.1-12.3-27.4-27.4-27.4m0 39.8c-6.8 0-12.4-5.6-12.4-12.4 0-6.8 5.6-12.4 12.4-12.4 6.8 0 12.4 5.6 12.4 12.4 0 6.9-5.6 12.4-12.4 12.4"/>
            <path d="m203.5 188.6c-15.1 0-27.4 12.3-27.4 27.4 0 15.1 12.3 27.4 27.4 27.4 15.1 0 27.4-12.3 27.4-27.4 0-15.1-12.3-27.4-27.4-27.4m0 39.8c-6.8 0-12.4-5.6-12.4-12.4 0-6.8 5.6-12.4 12.4-12.4 6.8 0 12.4 5.6 12.4 12.4 0 6.9-5.6 12.4-12.4 12.4"/>
        </g>
    </symbol>
    <symbol id="icon_check" viewBox="0 0 240.608 240.608">
        <path d="m208.79 29.972l31.819 31.82-148.84 148.84-91.76-91.76 31.819-31.82 59.944 59.942 117.03-117.03" fill="#ffd54f"/>
    </symbol>
    <symbol id="icon_home" viewBox="0 0 221.053 221.053">
        <path fill="#d1d7de" d="m218.28 103.78l-99.89-96.28c-2.098-2.02-4.889-3.136-7.856-3.136-2.969 0-5.76 1.113-7.857 3.136l-99.9 96.28c-3.346 3.224-2.955 5.996-2.425 7.312.531 1.315 2.115 3.605 6.761 3.605h11.248v85.57c0 8.906 7.676 16.43 16.368 16.43h50.632v-58h49v58h51.965c8.72 0 16.03-7.678 16.03-16.43v-85.57h11.581c4.646 0 6.229-2.29 6.761-3.605.53-1.316.922-4.087-2.424-7.312"/>
    </symbol>
    <symbol id="icon_menu-list" viewBox="0 0 100 100">
        <path d="M-0.2,83.3H100V72.2H-0.2V83.3z M-0.2,55.5H100V44.3H-0.2V55.5z M-0.2,16.5v11.1H100V16.5H-0.2z"/>
    </symbol>
    <symbol id="icon_menu-palett" viewBox="0 0 290 290">
        <path d="m0 220h70v70h-70z"/>
        <path d="m0 110h70v70h-70z"/>
        <path d="m0 0h70v70h-70z"/>
        <path d="m110 220h70v70h-70z"/>
        <path d="m110 110h70v70h-70z"/>
        <path d="m110 0h70v70h-70z"/>
        <path d="m220 220h70v70h-70z"/>
        <path d="m220 110h70v70h-70z"/>
        <path d="m220 0h70v70h-70z"/>
    </symbol>
    <symbol id="icon_more" fill="#d1d7de" viewBox="0 0 612 612">
        <circle cx="69.55" cy="306" r="69.55"/>
        <circle cx="306" cy="306" r="69.55"/>
        <circle cx="542.46" cy="306" r="69.55"/>
    </symbol>
    <symbol id="icon_starfull" viewBox="0 0 20 21">
        <path d="m10 15.273l6.18 3.727-1.635-7.03 5.455-4.727-7.191-.617-2.809-6.627-2.809 6.627-7.191.617 5.455 4.727-1.635 7.03 6.18-3.727" transform="translate(0 .5)" fill="#ffd54f"/>
    </symbol>
    <symbol id="icon_starempty" viewBox="0 0 20 21">
        <path d="m10 15.273l6.18 3.727-1.635-7.03 5.455-4.727-7.191-.617-2.809-6.627-2.809 6.627-7.191.617 5.455 4.727-1.635 7.03 6.18-3.727" transform="translate(0 .5)" fill="#d1d7de"/>
    </symbol>
    <symbol id="icon_starhalf" viewBox="-398 176 20 21">
        <path fill="#ffd54f" d="m-388 192v-.6-.7-1.4-2.7-.9-.8-.9-1-3-3.3l-1.4 3.3-1.4 3.3-3.6.3-3.6.3 2.7 2.4 2.7 2.4-.8 3.5-.8 3.5 3.1-1.9 3.1-1.8"/>
        <path fill="#d1d7de" d="m-388 192l3.1 1.9 3.1 1.9-.8-3.5-.8-3.5 2.7-2.4 2.7-2.4-3.6-.3-3.6-.3-1.4-3.3-1.4-3.3v3.3 3 .9.9.8.9 2.7 1.4.7.6"/>

    </symbol>
    <symbol id="icon_waste" viewBox="0 0 100 100">
      <path fill="currentColor" d="m23.7 93.5c0 0 1.5 6.8 9.2 6.8h34.7c7.7 0 9.2-6.8 9.2-6.8l6.8-66.5h-66.7l6.8 66.5m39.9-56.6c0-1.8 1.5-3.3 3.3-3.3 1.8 0 3.3 1.5 3.3 3.3l-3.3 50c0 1.8-1.5 3.3-3.3 3.3-1.8 0-3.3-1.5-3.3-3.3l3.3-50m-16.7 0c0-1.8 1.5-3.3 3.3-3.3 1.8 0 3.3 1.5 3.3 3.3v50c0 1.8-1.5 3.3-3.3 3.3-1.8 0-3.3-1.5-3.3-3.3 0 0 0-50 0-50m-13.3-3.3c1.8 0 3.3 1.5 3.3 3.3l3.3 50c0 1.8-1.5 3.3-3.3 3.3-1.8 0-3.3-1.5-3.3-3.3l-3.3-50c-.1-1.8 1.4-3.3 3.3-3.3m48-20h-14.7v-6.7c0-5.1-1.6-6.7-6.7-6.7h-20c-4.6 0-6.7 2.2-6.7 6.7v6.7h-14.6c-2.9 0-5.3 2.2-5.3 5 0 2.8 2.4 5 5.3 5h62.7c2.9 0 5.3-2.2 5.3-5 0-2.8-2.4-5-5.3-5m-21.4 0h-20v-6.7h20v6.7"/>
    </symbol>
</svg>